<svg xmlns="http://www.w3.org/2000/svg" enable-background="new 0 0 256 256" viewBox="0 0 256 256" width="256" height="256"><path fill="#5290db" d="M237.5752,103.3274h-52.7705c-8.7812,0-15.9258,7.144-15.9258,15.9258v102.1274     c0,8.7817,7.1445,15.9258,15.9258,15.9258h52.7705c8.7812,0,15.9248-7.144,15.9248-15.9258V119.2532     C253.5,110.4715,246.3564,103.3274,237.5752,103.3274z"/><path fill="#5290db" d="M168.8789,119.2532c0-8.7817,7.1445-15.9258,15.9258-15.9258H211.76V49.7873     c0-8.0463-6.5833-14.6296-14.6296-14.6296H30.4301c-8.0463,0-14.6296,6.5833-14.6296,14.6296v116.1588     c0,7.7913,6.1773,14.1919,13.8738,14.5911c36.3647,0,94.0616,0,139.2047,0V119.2532z"/><path fill="#edf4fc" d="M168.8789,180.5372c-55.7848,0-129.1398,0-161.3818,0c-2.7484,0-4.9971,2.2487-4.9971,4.9971v0.6613     c0,8.6346,7.0646,17.6993,15.6992,17.6993c7.7955,0,96.7826,0,150.6797,0V180.5372z"/><path fill="#70d6f9" d="M237.5748,113.3276h-15.6466c-1.8567,0-3.5661,1.0351-4.3547,2.6366     c-1.2082,2.454-3.6543,3.9782-6.384,3.9782s-5.1758-1.5243-6.384-3.9782c-0.7886-1.6015-2.498-2.6366-4.3546-2.6366h-15.6467     c-3.2674,0-5.9256,2.6582-5.9256,5.9256v102.1275c0,3.2674,2.6582,5.9256,5.9256,5.9256h52.7706     c3.2674,0,5.9256-2.6582,5.9256-5.9256V119.2533C243.5005,115.9859,240.8423,113.3276,237.5748,113.3276z"/><path fill="#c7d7e5" d="M72.7789,180.5372v5.2604c0,3.4921,2.8572,6.3494,6.3494,6.3494h69.3036     c3.4922,0,6.3494-2.8572,6.3494-6.3494v-5.2604C128.2406,180.5372,99.0618,180.5372,72.7789,180.5372z"/><path fill="#b598f9" d="M200.7722,49.7871c0-1.9744-1.6675-3.6418-3.6418-3.6418H30.4297c-1.9743,0-3.6418,1.6674-3.6418,3.6418     V165.946c0,1.8338,1.4496,3.4122,3.2673,3.6038h138.8237v-50.2965c0-8.7817,7.1445-15.9258,15.9258-15.9258h15.9675V49.7871z"/><circle cx="113.625" cy="135.307" r="9.022" fill="#70d6f9"/><path fill="#3a70bf" d="M197.1304,46.1453H30.4297c-1.9743,0-3.6418,1.6674-3.6418,3.6418V60.5h173.9843V49.7871     C200.7722,47.8127,199.1047,46.1453,197.1304,46.1453z"/><path fill="#fc657e" d="M44.5,46.1453H30.4297c-1.9743,0-3.6418,1.6674-3.6418,3.6418V60.5H44.5V46.1453z"/><path fill="#f5c84c" d="M61.0131,233.2c-3.1-0.6-5.6-3-6.2-6.1c0-0.1-0.3-0.1-0.3,0c-0.6,3.1-3.1,5.5-6.2,6.1c-0.1,0-0.1,0.2,0,0.3     c3.1,0.6,5.6,3,6.2,6.1c0,0.1,0.3,0.1,0.3,0c0.6-3.1,3.1-5.5,6.2-6.1C61.1131,233.4,61.1131,233.2,61.0131,233.2z"/><path fill="#70d6f9" d="M114.0131,250.5h2.3v2.3c0,1.8,1.4,3.2,3.2,3.2c1.7,0,3.2-1.4,3.2-3.1v-0.1v-2.3h2.3c1.8,0,3.2-1.4,3.2-3.2     c0-1.7-1.4-3.2-3.1-3.2h-0.1h-2.3v-2.3c0-1.8-1.4-3.2-3.2-3.2c-1.7,0-3.2,1.4-3.2,3.1v0.1v2.3h-2.3c-1.8,0-3.2,1.4-3.2,3.2     C110.7131,249,112.1131,250.5,114.0131,250.5C113.9131,250.5,113.9131,250.5,114.0131,250.5z"/><circle cx="83.413" cy="14.9" r="3.4" fill="#fc657e"/><circle cx="252.6" cy="62.4" r="3.4" fill="#87d147"/><path fill="#f5c84c" d="M198.8131,8.85c4.5-0.8,8-4.3,8.9-8.7c0-0.2,0.4-0.2,0.4,0c0.9,4.4,4.4,7.9,8.9,8.7c0.2,0,0.2,0.3,0,0.4     c-4.5,0.8-8,4.3-8.9,8.7c0,0.2-0.4,0.2-0.4,0c-0.9-4.4-4.4-7.9-8.9-8.7C198.6131,9.15,198.6131,8.85,198.8131,8.85z"/><path d="M133.626,121.8535c-0.6396,0-1.2793-0.2441-1.7676-0.7324c-4.8613-4.8618-11.3369-7.5391-18.2334-7.5391     s-13.3711,2.6777-18.2334,7.5391c-0.9766,0.9766-2.5586,0.9766-3.5352,0c-0.9766-0.9761-0.9766-2.5591,0-3.5352     c5.8057-5.8062,13.5371-9.0039,21.7686-9.0039s15.9629,3.1978,21.7686,9.0039c0.9766,0.9761,0.9766,2.5591,0,3.5352     C134.9053,121.6094,134.2656,121.8535,133.626,121.8535z"/><path d="M143.9492,111.5303c-0.6396,0-1.2793-0.2441-1.7676-0.7324c-15.7461-15.7451-41.3672-15.7451-57.1133,0     c-0.9766,0.9766-2.5586,0.9766-3.5352,0c-0.9766-0.9761-0.9766-2.5591,0-3.5352c17.6953-17.6953,46.4883-17.6953,64.1836,0     c0.9766,0.9761,0.9766,2.5591,0,3.5352C145.2285,111.2861,144.5889,111.5303,143.9492,111.5303z"/><path d="M154.2725 101.2075c-.6396 0-1.2793-.2441-1.7676-.7324-21.4395-21.4375-56.3203-21.4375-77.7598 0-.9766.9766-2.5586.9766-3.5352 0-.9766-.9761-.9766-2.5591 0-3.5352 23.3867-23.3887 61.4434-23.3887 84.8301 0 .9766.9761.9766 2.5591 0 3.5352C155.5518 100.9634 154.9121 101.2075 154.2725 101.2075zM237.5752 239.8066h-52.7705c-10.1602 0-18.4258-8.2656-18.4258-18.4258V119.2534c0-10.1602 8.2656-18.4258 18.4258-18.4258h52.7705c10.1592 0 18.4248 8.2656 18.4248 18.4258v102.1274C256 231.541 247.7344 239.8066 237.5752 239.8066zM184.8047 105.8276c-7.4033 0-13.4258 6.0229-13.4258 13.4258v102.1274c0 7.4028 6.0225 13.4258 13.4258 13.4258h52.7705c7.4023 0 13.4248-6.0229 13.4248-13.4258V119.2534c0-7.4028-6.0225-13.4258-13.4248-13.4258H184.8047z"/><path d="M168.8789,183.0371H29.6738c-0.043,0-0.0859-0.001-0.1299-0.0034c-9.1084-0.4722-16.2432-7.978-16.2432-17.0874V49.7871     c0-9.4453,7.6836-17.1294,17.1289-17.1294h166.7012c9.4453,0,17.1289,7.6841,17.1289,17.1294v53.5405     c0,1.3809-1.1191,2.5-2.5,2.5h-26.9551c-7.4033,0-13.4258,6.0229-13.4258,13.4258v61.2837     C171.3789,181.918,170.2598,183.0371,168.8789,183.0371z M29.7422,178.0371h136.6367v-58.7837     c0-10.1602,8.2656-18.4258,18.4258-18.4258h24.4551V49.7871c0-6.688-5.4414-12.1294-12.1289-12.1294H30.4297     c-6.6875,0-12.1289,5.4414-12.1289,12.1294v116.1592C18.3008,172.373,23.3213,177.6724,29.7422,178.0371z"/><path d="M168.8789 206.395H18.1992C7.7832 206.395 0 195.7305 0 186.1953v-.6611c0-4.1338 3.3633-7.4971 7.4971-7.4971h161.3818c1.3809 0 2.5 1.1191 2.5 2.5v23.3579C171.3789 205.2759 170.2598 206.395 168.8789 206.395zM7.4971 183.0371c-1.377 0-2.4971 1.1201-2.4971 2.4971v.6611c0 7.0288 5.7656 15.1997 13.1992 15.1997h148.1797v-18.3579H7.4971zM237.5752 229.8066h-52.7705c-4.6455 0-8.4258-3.7798-8.4258-8.4258V119.2534c0-4.646 3.7803-8.4258 8.4258-8.4258h15.6465c2.8008 0 5.3906 1.5825 6.5967 4.0317.7852 1.5938 2.3711 2.583 4.1416 2.583s3.3564-.9893 4.1406-2.582c1.207-2.4502 3.7969-4.0327 6.5977-4.0327h15.6475c4.6455 0 8.4248 3.7798 8.4248 8.4258v102.1274C246 226.0269 242.2207 229.8066 237.5752 229.8066zM184.8047 115.8276c-1.8887 0-3.4258 1.5366-3.4258 3.4258v102.1274c0 1.8892 1.5371 3.4258 3.4258 3.4258h52.7705c1.8887 0 3.4248-1.5366 3.4248-3.4258V119.2534c0-1.8892-1.5361-3.4258-3.4248-3.4258h-15.6475c-.8975 0-1.7461.499-2.1123 1.2417-1.6309 3.314-4.9365 5.373-8.626 5.373s-6.9951-2.0591-8.627-5.374c-.3652-.7417-1.2139-1.2407-2.1113-1.2407H184.8047z"/><path d="M148.4316 194.647H79.1279c-4.8789 0-8.8486-3.9697-8.8486-8.8491v-5.2607c0-1.3809 1.1191-2.5 2.5-2.5h82.002c1.3809 0 2.5 1.1191 2.5 2.5v5.2607C157.2812 190.6772 153.3115 194.647 148.4316 194.647zM75.2793 183.0371v2.7607c0 2.1226 1.7266 3.8491 3.8486 3.8491h69.3037c2.123 0 3.8496-1.7266 3.8496-3.8491v-2.7607H75.2793zM168.8789 172.0498H30.0557c-.0879 0-.1748-.0044-.2617-.0137-3.0869-.3252-5.5059-3-5.5059-6.0903V49.7871c0-3.3291 2.8125-6.1416 6.1416-6.1416h166.7012c3.3291 0 6.1416 2.8125 6.1416 6.1416v53.5405c0 1.3809-1.1191 2.5-2.5 2.5h-15.9678c-7.4033 0-13.4258 6.0229-13.4258 13.4258v50.2964C171.3789 170.9307 170.2598 172.0498 168.8789 172.0498zM30.2266 167.0498h136.1523v-47.7964c0-10.1602 8.2656-18.4258 18.4258-18.4258h13.4678V49.7871c0-.5977-.5439-1.1416-1.1416-1.1416H30.4297c-.5977 0-1.1416.5439-1.1416 1.1416v116.1587C29.2881 166.4629 29.709 166.9482 30.2266 167.0498z"/><path d="M113.625 146.8281c-6.3525 0-11.5215-5.1685-11.5215-11.5215s5.1689-11.5215 11.5215-11.5215 11.5215 5.1685 11.5215 11.5215S119.9775 146.8281 113.625 146.8281zM113.625 128.7852c-3.5957 0-6.5215 2.9253-6.5215 6.5215s2.9258 6.5215 6.5215 6.5215 6.5215-2.9253 6.5215-6.5215S117.2207 128.7852 113.625 128.7852zM200.7725 63H26.7881c-1.3809 0-2.5-1.1191-2.5-2.5V49.7871c0-3.3291 2.8125-6.1416 6.1416-6.1416h166.7012c3.3291 0 6.1416 2.8125 6.1416 6.1416V60.5C203.2725 61.8809 202.1533 63 200.7725 63zM29.2881 58h168.9844v-8.2129c0-.5977-.5439-1.1416-1.1416-1.1416H30.4297c-.5977 0-1.1416.5439-1.1416 1.1416V58z"/><path d="M44.5,63H26.7881c-1.3809,0-2.5-1.1191-2.5-2.5V49.7871c0-3.3291,2.8125-6.1416,6.1416-6.1416H44.5     c1.3809,0,2.5,1.1191,2.5,2.5V60.5C47,61.8809,45.8809,63,44.5,63z M29.2881,58H42v-9.3545H30.4297     c-0.5977,0-1.1416,0.5439-1.1416,1.1416V58z"/></svg>