<svg xmlns="http://www.w3.org/2000/svg" xmlns:xlink="http://www.w3.org/1999/xlink" viewBox="0 0 750 750" width="750" height="750" preserveAspectRatio="xMidYMid meet" style="width: 100%; height: 100%; transform: translate3d(0px, 0px, 0px); content-visibility: visible;"><defs><clipPath id="__lottie_element_37996"><rect width="750" height="750" x="0" y="0"/></clipPath></defs><g clip-path="url(#__lottie_element_37996)"><g transform="matrix(1,0,0,1,375,375)" opacity="1" style="display: block;"><g opacity="1" transform="matrix(1,0,0,1,0,0)"><path fill="rgb(245,245,245)" fill-opacity="1" d=" M259.4530029296875,-30.8439998626709 C252.58799743652344,2.806999921798706 244.2989959716797,35.96500015258789 227.7449951171875,66.35199737548828 C207.33200073242188,103.86299896240234 177.33299255371094,127.12699890136719 133.44900512695312,132.28199768066406 C113.11299896240234,134.6649932861328 78.78900146484375,130.41600036621094 62.39099884033203,128.0330047607422 C56.61399841308594,127.2040023803711 50.941001892089844,125.98699951171875 45.345001220703125,124.3550033569336 C45.345001220703125,124.3550033569336 -74.0009994506836,89.38200378417969 -74.0009994506836,89.38200378417969 C-76.0989990234375,88.76000213623047 -78.1449966430664,88.08699798583984 -80.16600036621094,87.30999755859375 C-92.80799865722656,82.49199676513672 -143.16799926757812,63.63199996948242 -168.16700744628906,59.53900146484375 C-188.00999450683594,56.275001525878906 -208.08700561523438,54.590999603271484 -227.64599609375,49.43600082397461 C-250.20899963378906,43.50400161743164 -262.5150146484375,27.934999465942383 -262.9549865722656,4.256999969482422 C-263.83599853515625,-43.51300048828125 -251.71200561523438,-89.15799713134766 -240.2100067138672,-134.82899475097656 C-233.9149932861328,-159.802001953125 -225.72799682617188,-184.15199279785156 -211.58399963378906,-206.0679931640625 C-191.843994140625,-236.66200256347656 -162.7010040283203,-251.89500427246094 -127.83200073242188,-258.05999755859375 C-92.10900115966797,-264.4070129394531 -55.97100067138672,-263.3970031738281 -20.118000030517578,-261.7909851074219 C38.22100067138672,-259.17498779296875 95.67900085449219,-249.7969970703125 148.86300659179688,-224.0989990234375 C196.78799438476562,-200.91400146484375 237.2519989013672,-169.51600646972656 254.8939971923828,-116.41000366210938 C264.03900146484375,-88.84700012207031 265.2820129394531,-59.262001037597656 259.4530029296875,-30.8439998626709z"/></g><g opacity="1" transform="matrix(1,0,0,1,0,0)"><path fill="rgb(255,255,255)" fill-opacity="1" d=" M-8.069000244140625,-212.16099548339844 C-8.156000137329102,-220.3939971923828 -14.850000381469727,-227.04200744628906 -23.10300064086914,-227.04200744628906 C-25.06399917602539,-227.04200744628906 -26.94700050354004,-226.65499877929688 -28.676000595092773,-225.95799255371094 C-31.410999298095703,-235.99400329589844 -40.56999969482422,-243.39999389648438 -51.48400115966797,-243.39999389648438 C-63.198001861572266,-243.39999389648438 -72.92400360107422,-234.88499450683594 -74.78199768066406,-223.73899841308594 C-77.33599853515625,-225.80299377441406 -80.61299896240234,-227.04200744628906 -84.17400360107422,-227.04200744628906 C-92.427001953125,-227.04200744628906 -99.12000274658203,-220.3939971923828 -99.20700073242188,-212.16099548339844 C-99.20700073242188,-212.16099548339844 -8.069000244140625,-212.16099548339844 -8.069000244140625,-212.16099548339844z"/></g><g opacity="1" transform="matrix(1,0,0,1,0,0)"><path fill="rgb(255,255,255)" fill-opacity="1" d=" M232.56300354003906,-122.67500305175781 C232.49400329589844,-129.2050018310547 227.18499755859375,-134.47900390625 220.63800048828125,-134.47900390625 C219.08299255371094,-134.47900390625 217.58900451660156,-134.17100524902344 216.21800231933594,-133.61900329589844 C214.0489959716797,-141.5800018310547 206.7830047607422,-147.45399475097656 198.12600708007812,-147.45399475097656 C188.8350067138672,-147.45399475097656 181.11900329589844,-140.6999969482422 179.64599609375,-131.85899353027344 C177.6199951171875,-133.49600219726562 175.02000427246094,-134.47900390625 172.1959991455078,-134.47900390625 C165.6490020751953,-134.47900390625 160.33999633789062,-129.2050018310547 160.27099609375,-122.67500305175781 C160.27099609375,-122.67500305175781 232.56300354003906,-122.67500305175781 232.56300354003906,-122.67500305175781z"/></g></g><g transform="matrix(1,0,0,1,375,375)" opacity="1" style="display: block;"><g opacity="1" transform="matrix(1,0,0,1,0,0)"><path stroke-linecap="round" stroke-linejoin="round" fill-opacity="0" stroke="rgb(9,45,75)" stroke-opacity="1" stroke-width="10.958" d=" M263,262.7099914550781 C263,262.7099914550781 -221.85699462890625,262.7099914550781 -221.85699462890625,262.7099914550781"/></g><g opacity="1" transform="matrix(1,0,0,1,0,0)"><path stroke-linecap="round" stroke-linejoin="round" fill-opacity="0" stroke="rgb(9,45,75)" stroke-opacity="1" stroke-width="10.958" d=" M-242.9709930419922,262.7099914550781 C-242.9709930419922,262.7099914550781 -263,262.7099914550781 -263,262.7099914550781"/></g></g><g transform="matrix(1.000002384185791,0,0,0.999997615814209,375.0003356933594,375.0006408691406)" opacity="1" style="display: block;"><g opacity="1" transform="matrix(1,0,0,1,0,0)"><path fill="rgb(90,167,245)" fill-opacity="1" d=" M-217.1230010986328,83.55699920654297 C-217.1230010986328,83.55699920654297 -217.1230010986328,224.16700744628906 -217.1230010986328,224.16700744628906 C-217.1230010986328,224.16700744628906 -67.26699829101562,224.16700744628906 -67.26699829101562,224.16700744628906 C-67.26699829101562,224.16700744628906 -67.26699829101562,83.55699920654297 -67.26699829101562,83.55699920654297 C-67.26699829101562,83.55699920654297 -217.1230010986328,83.55699920654297 -217.1230010986328,83.55699920654297z"/><path stroke-linecap="round" stroke-linejoin="round" fill-opacity="0" stroke="rgb(9,45,75)" stroke-opacity="1" stroke-width="10.958" d=" M-217.1230010986328,83.55699920654297 C-217.1230010986328,83.55699920654297 -217.1230010986328,224.16700744628906 -217.1230010986328,224.16700744628906 C-217.1230010986328,224.16700744628906 -67.26699829101562,224.16700744628906 -67.26699829101562,224.16700744628906 C-67.26699829101562,224.16700744628906 -67.26699829101562,83.55699920654297 -67.26699829101562,83.55699920654297 C-67.26699829101562,83.55699920654297 -217.1230010986328,83.55699920654297 -217.1230010986328,83.55699920654297z"/></g><g opacity="1" transform="matrix(1,0,0,1,0,0)"><path fill="rgb(216,216,216)" fill-opacity="1" d=" M-67.26699829101562,83.55699920654297 C-67.26699829101562,83.55699920654297 -67.26699829101562,66.40699768066406 -67.26699829101562,66.40699768066406 C-67.26699829101562,58.736000061035156 -73.45899963378906,52.4900016784668 -81.18399810791016,52.4900016784668 C-81.18399810791016,52.4900016784668 -203.25999450683594,52.4900016784668 -203.25999450683594,52.4900016784668 C-210.93099975585938,52.4900016784668 -217.1230010986328,58.736000061035156 -217.1230010986328,66.40699768066406 C-217.1230010986328,66.40699768066406 -217.1230010986328,83.55699920654297 -217.1230010986328,83.55699920654297 C-217.1230010986328,83.55699920654297 -67.26699829101562,83.55699920654297 -67.26699829101562,83.55699920654297z"/><path stroke-linecap="round" stroke-linejoin="round" fill-opacity="0" stroke="rgb(9,45,75)" stroke-opacity="1" stroke-width="10.958" d=" M-67.26699829101562,83.55699920654297 C-67.26699829101562,83.55699920654297 -67.26699829101562,66.40699768066406 -67.26699829101562,66.40699768066406 C-67.26699829101562,58.736000061035156 -73.45899963378906,52.4900016784668 -81.18399810791016,52.4900016784668 C-81.18399810791016,52.4900016784668 -203.25999450683594,52.4900016784668 -203.25999450683594,52.4900016784668 C-210.93099975585938,52.4900016784668 -217.1230010986328,58.736000061035156 -217.1230010986328,66.40699768066406 C-217.1230010986328,66.40699768066406 -217.1230010986328,83.55699920654297 -217.1230010986328,83.55699920654297 C-217.1230010986328,83.55699920654297 -67.26699829101562,83.55699920654297 -67.26699829101562,83.55699920654297z"/></g><g opacity="1" transform="matrix(1,0,0,1,0,0)"><path fill="rgb(216,216,216)" fill-opacity="1" d=" M-217.1230010986328,224.16700744628906 C-217.1230010986328,224.16700744628906 -217.1230010986328,249.08299255371094 -217.1230010986328,249.08299255371094 C-217.1230010986328,256.7539978027344 -210.93099975585938,263 -203.20599365234375,263 C-203.20599365234375,263 -81.12999725341797,263 -81.12999725341797,263 C-73.45899963378906,263 -67.26699829101562,256.7539978027344 -67.26699829101562,249.08299255371094 C-67.26699829101562,249.08299255371094 -67.26699829101562,224.16700744628906 -67.26699829101562,224.16700744628906 C-67.26699829101562,224.16700744628906 -217.1230010986328,224.16700744628906 -217.1230010986328,224.16700744628906z"/><path stroke-linecap="round" stroke-linejoin="round" fill-opacity="0" stroke="rgb(9,45,75)" stroke-opacity="1" stroke-width="10.958" d=" M-217.1230010986328,224.16700744628906 C-217.1230010986328,224.16700744628906 -217.1230010986328,249.08299255371094 -217.1230010986328,249.08299255371094 C-217.1230010986328,256.7539978027344 -210.93099975585938,263 -203.20599365234375,263 C-203.20599365234375,263 -81.12999725341797,263 -81.12999725341797,263 C-73.45899963378906,263 -67.26699829101562,256.7539978027344 -67.26699829101562,249.08299255371094 C-67.26699829101562,249.08299255371094 -67.26699829101562,224.16700744628906 -67.26699829101562,224.16700744628906 C-67.26699829101562,224.16700744628906 -217.1230010986328,224.16700744628906 -217.1230010986328,224.16700744628906z"/></g></g><g transform="matrix(1.000002384185791,0,0,0.999997615814209,374.99969482421875,375.0006408691406)" opacity="1" style="display: block;"><g opacity="1" transform="matrix(1,0,0,1,0,0)"><path fill="rgb(255,216,160)" fill-opacity="1" d=" M221.781005859375,153.86199951171875 C221.781005859375,153.86199951171875 221.781005859375,195.9770050048828 221.781005859375,195.9770050048828 C221.781005859375,195.9770050048828 16.871000289916992,195.9770050048828 16.871000289916992,195.9770050048828 C16.871000289916992,195.9770050048828 16.871000289916992,70.16000366210938 16.871000289916992,70.16000366210938 C16.871000289916992,60.45000076293945 24.756000518798828,52.505001068115234 34.525001525878906,52.505001068115234 C34.525001525878906,52.505001068115234 204.12600708007812,52.505001068115234 204.12600708007812,52.505001068115234 C213.83599853515625,52.505001068115234 221.781005859375,60.45000076293945 221.781005859375,70.16000366210938 C221.781005859375,70.16000366210938 221.781005859375,124.24099731445312 221.781005859375,124.24099731445312 C221.781005859375,124.24099731445312 221.781005859375,153.86199951171875 221.781005859375,153.86199951171875z"/><path stroke-linecap="round" stroke-linejoin="round" fill-opacity="0" stroke="rgb(9,45,75)" stroke-opacity="1" stroke-width="10.958" d=" M221.781005859375,153.86199951171875 C221.781005859375,153.86199951171875 221.781005859375,195.9770050048828 221.781005859375,195.9770050048828 C221.781005859375,195.9770050048828 16.871000289916992,195.9770050048828 16.871000289916992,195.9770050048828 C16.871000289916992,195.9770050048828 16.871000289916992,70.16000366210938 16.871000289916992,70.16000366210938 C16.871000289916992,60.45000076293945 24.756000518798828,52.505001068115234 34.525001525878906,52.505001068115234 C34.525001525878906,52.505001068115234 204.12600708007812,52.505001068115234 204.12600708007812,52.505001068115234 C213.83599853515625,52.505001068115234 221.781005859375,60.45000076293945 221.781005859375,70.16000366210938 C221.781005859375,70.16000366210938 221.781005859375,124.24099731445312 221.781005859375,124.24099731445312 C221.781005859375,124.24099731445312 221.781005859375,153.86199951171875 221.781005859375,153.86199951171875z"/></g><g opacity="1" transform="matrix(1,0,0,1,0,0)"><path fill="rgb(137,142,162)" fill-opacity="1" d=" M221.781005859375,195.9770050048828 C221.781005859375,195.9770050048828 221.781005859375,218.63499450683594 221.781005859375,218.63499450683594 C221.781005859375,228.4029998779297 213.83599853515625,236.28900146484375 204.12600708007812,236.28900146484375 C204.12600708007812,236.28900146484375 34.525001525878906,236.28900146484375 34.525001525878906,236.28900146484375 C24.756000518798828,236.28900146484375 16.871000289916992,228.4029998779297 16.871000289916992,218.63499450683594 C16.871000289916992,218.63499450683594 16.871000289916992,195.9770050048828 16.871000289916992,195.9770050048828 C16.871000289916992,195.9770050048828 221.781005859375,195.9770050048828 221.781005859375,195.9770050048828z"/><path stroke-linecap="round" stroke-linejoin="round" fill-opacity="0" stroke="rgb(9,45,75)" stroke-opacity="1" stroke-width="10.958" d=" M221.781005859375,195.9770050048828 C221.781005859375,195.9770050048828 221.781005859375,218.63499450683594 221.781005859375,218.63499450683594 C221.781005859375,228.4029998779297 213.83599853515625,236.28900146484375 204.12600708007812,236.28900146484375 C204.12600708007812,236.28900146484375 34.525001525878906,236.28900146484375 34.525001525878906,236.28900146484375 C24.756000518798828,236.28900146484375 16.871000289916992,228.4029998779297 16.871000289916992,218.63499450683594 C16.871000289916992,218.63499450683594 16.871000289916992,195.9770050048828 16.871000289916992,195.9770050048828 C16.871000289916992,195.9770050048828 221.781005859375,195.9770050048828 221.781005859375,195.9770050048828z"/></g><g opacity="1" transform="matrix(1,0,0,1,0,0)"><path fill="rgb(216,216,216)" fill-opacity="1" d=" M151.0709991455078,263 C151.0709991455078,263 87.58100128173828,263 87.58100128173828,263 C87.58100128173828,263 87.58100128173828,236.28900146484375 87.58100128173828,236.28900146484375 C87.58100128173828,236.28900146484375 151.0709991455078,236.28900146484375 151.0709991455078,236.28900146484375 C151.0709991455078,236.28900146484375 151.0709991455078,263 151.0709991455078,263z"/><path stroke-linecap="round" stroke-linejoin="round" fill-opacity="0" stroke="rgb(9,45,75)" stroke-opacity="1" stroke-width="10.958" d=" M151.0709991455078,263 C151.0709991455078,263 87.58100128173828,263 87.58100128173828,263 C87.58100128173828,263 87.58100128173828,236.28900146484375 87.58100128173828,236.28900146484375 C87.58100128173828,236.28900146484375 151.0709991455078,236.28900146484375 151.0709991455078,236.28900146484375 C151.0709991455078,236.28900146484375 151.0709991455078,263 151.0709991455078,263z"/></g><g opacity="1" transform="matrix(1,0,0,1,0,0)"><g opacity="1" transform="matrix(1,0,0,1,0,0)"><path fill="rgb(255,255,255)" fill-opacity="1" d=" M134.73500061035156,221.61199951171875 C134.73500061035156,221.61199951171875 103.91400146484375,221.61199951171875 103.91400146484375,221.61199951171875 C100.88500213623047,221.61199951171875 98.43499755859375,219.16200256347656 98.43499755859375,216.13299560546875 C98.43499755859375,213.10400390625 100.88500213623047,210.6540069580078 103.91400146484375,210.6540069580078 C103.91400146484375,210.6540069580078 134.73500061035156,210.6540069580078 134.73500061035156,210.6540069580078 C137.76400756835938,210.6540069580078 140.21400451660156,213.10400390625 140.21400451660156,216.13299560546875 C140.21400451660156,219.16200256347656 137.76400756835938,221.61199951171875 134.73500061035156,221.61199951171875z"/></g></g></g><g transform="matrix(1.000059962272644,0,0,1.000059962272644,374.9928283691406,374.99114990234375)" opacity="1" style="display: block;"><g opacity="1" transform="matrix(1,0,0,1,0,0)"><path stroke-linecap="round" stroke-linejoin="round" fill-opacity="0" stroke="rgb(9,45,75)" stroke-opacity="1" stroke-width="10.958" d=" M95.45500183105469,152.31399536132812 C108.61799621582031,139.1510009765625 130.0330047607422,139.1510009765625 143.1959991455078,152.31399536132812"/></g></g><g transform="matrix(1.000059962272644,0,0,1.000059962272644,375.008544921875,374.9894104003906)" opacity="1" style="display: block;"><g opacity="1" transform="matrix(1,0,0,1,0,0)"><path stroke-linecap="round" stroke-linejoin="round" fill-opacity="0" stroke="rgb(9,45,75)" stroke-opacity="1" stroke-width="10.958" d=" M-166.06500244140625,181.93499755859375 C-152.90199279785156,168.77200317382812 -131.48800659179688,168.77200317382812 -118.32499694824219,181.93499755859375"/></g></g><g transform="matrix(1.0000609159469604,0,0,1.0000609159469604,374.99273681640625,374.99224853515625)" opacity="1" style="display: block;"><g opacity="1" transform="matrix(1,0,0,1,0,0)"><path stroke-linecap="round" stroke-linejoin="round" fill-opacity="0" stroke="rgb(9,45,75)" stroke-opacity="1" stroke-width="10.958" d=" M79.08699798583984,135.9459991455078 C101.27400207519531,113.75900268554688 137.3769989013672,113.75900268554688 159.56399536132812,135.9459991455078"/></g></g><g transform="matrix(1.0000609159469604,0,0,1.0000609159469604,375.0086669921875,374.99041748046875)" opacity="1" style="display: block;"><g opacity="1" transform="matrix(1,0,0,1,0,0)"><path stroke-linecap="round" stroke-linejoin="round" fill-opacity="0" stroke="rgb(9,45,75)" stroke-opacity="1" stroke-width="10.958" d=" M-182.43299865722656,165.56700134277344 C-160.24600219726562,143.3800048828125 -124.14299774169922,143.3800048828125 -101.95600128173828,165.56700134277344"/></g></g><g transform="matrix(1.0000680685043335,0,0,1.0000680685043335,374.99188232421875,374.9926452636719)" opacity="1" style="display: block;"><g opacity="1" transform="matrix(1,0,0,1,0,0)"><path stroke-linecap="round" stroke-linejoin="round" fill-opacity="0" stroke="rgb(9,45,75)" stroke-opacity="1" stroke-width="10.958" d=" M62.71900177001953,119.5780029296875 C93.93199920654297,88.36499786376953 144.72000122070312,88.36499786376953 175.93299865722656,119.5780029296875"/></g></g><g transform="matrix(1.0000680685043335,0,0,1.0000680685043335,375.0096740722656,374.99066162109375)" opacity="1" style="display: block;"><g opacity="1" transform="matrix(1,0,0,1,0,0)"><path stroke-linecap="round" stroke-linejoin="round" fill-opacity="0" stroke="rgb(9,45,75)" stroke-opacity="1" stroke-width="10.958" d=" M-198.802001953125,149.19900512695312 C-167.58900451660156,117.98600006103516 -116.8010025024414,117.98600006103516 -85.58799743652344,149.19900512695312"/></g></g><g transform="matrix(1,0,0,1,375,375)" opacity="1" style="display: block;"><g opacity="1" transform="matrix(1,0,0,1,0,0)"><path stroke-linecap="round" stroke-linejoin="round" fill-opacity="0" stroke="rgb(9,45,75)" stroke-opacity="1" stroke-width="10.958" d=" M41.74399948120117,-21.441999435424805 C41.74399948120117,-21.441999435424805 41.74399948120117,6.813000202178955 41.74399948120117,6.813000202178955 C41.74399948120117,15.916000366210938 49.12300109863281,23.295000076293945 58.22600173950195,23.295000076293945 C58.22600173950195,23.295000076293945 101.49600219726562,23.295000076293945 101.49600219726562,23.295000076293945 C110.5989990234375,23.295000076293945 117.97799682617188,30.67300033569336 117.97799682617188,39.7760009765625 C117.97799682617188,39.7760009765625 117.97799682617188,52.505001068115234 117.97799682617188,52.505001068115234"/></g></g><g transform="matrix(1,0,0,1,375,375)" opacity="1" style="display: block;"><g opacity="1" transform="matrix(1,0,0,1,0,0)"><path stroke-linecap="round" stroke-linejoin="round" fill-opacity="0" stroke="rgb(9,45,75)" stroke-opacity="1" stroke-width="10.958" d=" M-58.20000076293945,-21.441999435424805 C-58.20000076293945,-21.441999435424805 -58.20000076293945,6.813000202178955 -58.20000076293945,6.813000202178955 C-58.20000076293945,15.916000366210938 -65.5780029296875,23.295000076293945 -74.68099975585938,23.295000076293945 C-74.68099975585938,23.295000076293945 -125.71800231933594,23.295000076293945 -125.71800231933594,23.295000076293945 C-134.8209991455078,23.295000076293945 -142.19900512695312,30.67300033569336 -142.19900512695312,39.7760009765625 C-142.19900512695312,39.7760009765625 -142.19900512695312,52.505001068115234 -142.19900512695312,52.505001068115234"/></g></g><g transform="matrix(0.9993900060653687,0,0,0.9993900060653687,374.9949951171875,374.9869384765625)" opacity="1" style="display: block;"><g opacity="1" transform="matrix(1,0,0,1,0,0)"><path fill="rgb(255,255,255)" fill-opacity="1" d=" M160.35000610351562,-78.822998046875 C160.35000610351562,-47.13800048828125 134.66700744628906,-21.441999435424805 102.98200225830078,-21.441999435424805 C72.13200378417969,-21.441999435424805 -107.04399871826172,-21.441999435424805 -131.10800170898438,-21.441999435424805 C-156.35000610351562,-21.441999435424805 -176.80599975585938,-41.9109992980957 -176.80599975585938,-67.15299987792969 C-176.80599975585938,-92.3949966430664 -156.35000610351562,-112.85199737548828 -131.10800170898438,-112.85199737548828 C-128.13800048828125,-112.85199737548828 -125.2300033569336,-112.56999969482422 -122.41999816894531,-112.02999877929688 C-123.65899658203125,-117.39299774169922 -124.30899810791016,-122.97599792480469 -124.30899810791016,-128.718994140625 C-124.30899810791016,-169.55799865722656 -91.21299743652344,-202.6540069580078 -50.374000549316406,-202.6540069580078 C-21.7450008392334,-202.6540069580078 3.0920000076293945,-186.3820037841797 15.37600040435791,-162.56300354003906 C20.198999404907227,-164.29299926757812 25.400999069213867,-165.23800659179688 30.812999725341797,-165.23800659179688 C52.742000579833984,-165.23800659179688 71.0510025024414,-149.78900146484375 75.48100280761719,-129.18499755859375 C83.64199829101562,-133.65199279785156 93.01699829101562,-136.19200134277344 102.98200225830078,-136.19200134277344 C134.66700744628906,-136.19200134277344 160.35000610351562,-110.50800323486328 160.35000610351562,-78.822998046875z"/></g><g opacity="1" transform="matrix(1,0,0,1,0,0)"><path fill="rgb(255,255,255)" fill-opacity="1" d=" M160.35000610351562,-78.822998046875 C160.35000610351562,-47.13800048828125 134.66700744628906,-21.441999435424805 102.98200225830078,-21.441999435424805 C72.13200378417969,-21.441999435424805 -107.04399871826172,-21.441999435424805 -131.10800170898438,-21.441999435424805 C-156.35000610351562,-21.441999435424805 -176.80599975585938,-41.9109992980957 -176.80599975585938,-67.15299987792969 C-176.80599975585938,-92.3949966430664 -156.35000610351562,-112.85199737548828 -131.10800170898438,-112.85199737548828 C-128.13800048828125,-112.85199737548828 -125.2300033569336,-112.56999969482422 -122.41999816894531,-112.02999877929688 C-123.65899658203125,-117.39299774169922 -124.30899810791016,-122.97599792480469 -124.30899810791016,-128.718994140625 C-124.30899810791016,-169.55799865722656 -91.21299743652344,-202.6540069580078 -50.374000549316406,-202.6540069580078 C-21.7450008392334,-202.6540069580078 3.0920000076293945,-186.3820037841797 15.37600040435791,-162.56300354003906 C20.198999404907227,-164.29299926757812 25.400999069213867,-165.23800659179688 30.812999725341797,-165.23800659179688 C52.742000579833984,-165.23800659179688 71.0510025024414,-149.78900146484375 75.48100280761719,-129.18499755859375 C83.64199829101562,-133.65199279785156 93.01699829101562,-136.19200134277344 102.98200225830078,-136.19200134277344 C134.66700744628906,-136.19200134277344 160.35000610351562,-110.50800323486328 160.35000610351562,-78.822998046875z"/></g><g opacity="1" transform="matrix(1,0,0,1,0,0)"><path fill="rgb(240,241,242)" fill-opacity="1" d=" M160.35800170898438,-78.82499694824219 C160.35800170898438,-47.154998779296875 134.66099548339844,-21.457000732421875 102.99099731445312,-21.457000732421875 C102.99099731445312,-21.457000732421875 -131.13400268554688,-21.457000732421875 -131.13400268554688,-21.457000732421875 C-147.18800354003906,-21.457000732421875 -161.32400512695312,-29.731000900268555 -169.48800659179688,-42.27899932861328 C-166.4199981689453,-41.62200164794922 -163.24099731445312,-41.292999267578125 -159.95399475097656,-41.292999267578125 C-159.95399475097656,-41.292999267578125 74.11599731445312,-41.292999267578125 74.11599731445312,-41.292999267578125 C105.83999633789062,-41.292999267578125 131.48199462890625,-66.98899841308594 131.48199462890625,-98.65899658203125 C131.48199462890625,-111.91799926757812 127.04399871826172,-124.08200073242188 119.48300170898438,-133.77999877929688 C143.1529998779297,-126.71199798583984 160.35800170898438,-104.74099731445312 160.35800170898438,-78.82499694824219z"/></g><g opacity="1" transform="matrix(1,0,0,1,0,0)"><path stroke-linecap="round" stroke-linejoin="round" fill-opacity="0" stroke="rgb(9,45,75)" stroke-opacity="1" stroke-width="10.958" d=" M160.35000610351562,-78.822998046875 C160.35000610351562,-47.13800048828125 134.66700744628906,-21.441999435424805 102.98200225830078,-21.441999435424805 C72.13200378417969,-21.441999435424805 -107.04399871826172,-21.441999435424805 -131.10800170898438,-21.441999435424805 C-156.35000610351562,-21.441999435424805 -176.80599975585938,-41.9109992980957 -176.80599975585938,-67.15299987792969 C-176.80599975585938,-92.3949966430664 -156.35000610351562,-112.85199737548828 -131.10800170898438,-112.85199737548828 C-128.13800048828125,-112.85199737548828 -125.2300033569336,-112.56999969482422 -122.41999816894531,-112.02999877929688 C-123.65899658203125,-117.39299774169922 -124.30899810791016,-122.97599792480469 -124.30899810791016,-128.718994140625 C-124.30899810791016,-169.55799865722656 -91.21299743652344,-202.6540069580078 -50.374000549316406,-202.6540069580078 C-21.7450008392334,-202.6540069580078 3.0920000076293945,-186.3820037841797 15.37600040435791,-162.56300354003906 C20.198999404907227,-164.29299926757812 25.400999069213867,-165.23800659179688 30.812999725341797,-165.23800659179688 C52.742000579833984,-165.23800659179688 71.0510025024414,-149.78900146484375 75.48100280761719,-129.18499755859375 C83.64199829101562,-133.65199279785156 93.01699829101562,-136.19200134277344 102.98200225830078,-136.19200134277344 C134.66700744628906,-136.19200134277344 160.35000610351562,-110.50800323486328 160.35000610351562,-78.822998046875z"/></g></g></g></svg>