<svg xmlns="http://www.w3.org/2000/svg" xmlns:xlink="http://www.w3.org/1999/xlink" viewBox="0 0 500 500" width="500" height="500" preserveAspectRatio="xMidYMid meet" style="width: 100%; height: 100%; transform: translate3d(0px, 0px, 0px); content-visibility: visible;"><defs><clipPath id="__lottie_element_41204"><rect width="500" height="500" x="0" y="0"/></clipPath><mask id="__lottie_element_41206"><rect fill="#ffffff" width="500" height="500" transform="matrix(0.2666666805744171,0,0,0.2666666805744171,-740.7907104492188,-709.626708984375)"/><path fill="#000000" clip-rule="nonzero" d=" M-649.0570068359375,-703.2269897460938 C-666.5830078125,-703.2269897460938 -680.791015625,-689.0189819335938 -680.791015625,-671.4929809570312 C-680.791015625,-653.9669799804688 -666.5830078125,-639.760009765625 -649.0570068359375,-639.760009765625 C-631.531005859375,-639.760009765625 -617.323974609375,-653.9669799804688 -617.323974609375,-671.4929809570312 C-617.323974609375,-689.0189819335938 -631.531005859375,-703.2269897460938 -649.0570068359375,-703.2269897460938" fill-opacity="1"/></mask></defs><g clip-path="url(#__lottie_element_41204)"><g mask="url(#__lottie_element_41206)" transform="matrix(3.75,0,0,3.75,2777.965087890625,2661.10009765625)" opacity="1" style="display: block;"><g opacity="1" transform="matrix(1,0,0,1,0,0)"><path fill="rgb(246,181,25)" fill-opacity="1" d=" M-621.16,-602.07 C-621.16,-602.07 -616.38,-656.62 -616.38,-656.62 C-616.12,-659.65 -616.64,-673.32 -619.68,-673.32 C-619.68,-673.32 -654.94,-673.32 -654.94,-673.32 C-657.23,-673.32 -659.02,-675.28 -658.82,-677.55 C-658.82,-677.55 -658.61,-679.9 -658.61,-679.9 C-658.41,-682.17 -660.21,-684.13 -662.49,-684.13 C-662.49,-684.13 -698.55,-684.13 -698.55,-684.13 C-700.56,-684.13 -702.24,-682.59 -702.42,-680.58 C-702.42,-680.58 -702.74,-676.87 -702.74,-676.87 C-702.92,-674.86 -704.6,-673.32 -706.62,-673.32 C-706.62,-673.32 -707.16,-673.32 -707.16,-673.32 C-709.85,-673.32 -712.09,-671.27 -712.33,-668.59 C-712.33,-668.59 -712.59,-655.67 -712.59,-655.67 M-697.94,-678.72 C-697.94,-678.72 -663.36,-678.72 -663.36,-678.72 M-698.41,-673.32 C-698.41,-673.32 -663.83,-673.32 -663.83,-673.32"/><g opacity="1" transform="matrix(1,0,0,1,-663.5469970703125,-648.6320190429688)"><path stroke-linecap="round" stroke-linejoin="round" fill-opacity="0" stroke="rgb(20,21,24)" stroke-opacity="1" stroke-width="3.248" d=" M42.38999938964844,46.56100082397461 C42.38999938964844,46.56100082397461 47.1619987487793,-7.985000133514404 47.1619987487793,-7.985000133514404 C47.426998138427734,-11.015999794006348 46.904998779296875,-24.690000534057617 43.86199951171875,-24.690000534057617 C43.86199951171875,-24.690000534057617 8.602999687194824,-24.690000534057617 8.602999687194824,-24.690000534057617 C6.321000099182129,-24.690000534057617 4.53000020980835,-26.645000457763672 4.729000091552734,-28.917999267578125 C4.729000091552734,-28.917999267578125 4.934000015258789,-31.266000747680664 4.934000015258789,-31.266000747680664 C5.132999897003174,-33.53900146484375 3.3410000801086426,-35.49399948120117 1.059000015258789,-35.49399948120117 C1.059000015258789,-35.49399948120117 -34.999000549316406,-35.49399948120117 -34.999000549316406,-35.49399948120117 C-37.01599884033203,-35.49399948120117 -38.698001861572266,-33.952999114990234 -38.874000549316406,-31.944000244140625 C-38.874000549316406,-31.944000244140625 -39.198001861572266,-28.239999771118164 -39.198001861572266,-28.239999771118164 C-39.374000549316406,-26.231000900268555 -41.055999755859375,-24.690000534057617 -43.073001861572266,-24.690000534057617 C-43.073001861572266,-24.690000534057617 -43.61600112915039,-24.690000534057617 -43.61600112915039,-24.690000534057617 C-46.30500030517578,-24.690000534057617 -48.54800033569336,-22.634000778198242 -48.78200149536133,-19.954999923706055 C-48.78200149536133,-19.954999923706055 -49.04100036621094,-7.040999889373779 -49.04100036621094,-7.040999889373779"/></g><g opacity="1" transform="matrix(1,0,0,1,-680.6489868164062,-678.7230224609375)"><path stroke-linecap="round" stroke-linejoin="round" fill-opacity="0" stroke="rgb(20,21,24)" stroke-opacity="1" stroke-width="3.248" d=" M-17.288000106811523,0 C-17.288000106811523,0 17.288000106811523,0 17.288000106811523,0"/></g><g opacity="1" transform="matrix(1,0,0,1,-681.1209716796875,-673.3209838867188)"><path stroke-linecap="round" stroke-linejoin="round" fill-opacity="0" stroke="rgb(20,21,24)" stroke-opacity="1" stroke-width="3.248" d=" M-17.288000106811523,0 C-17.288000106811523,0 17.288000106811523,0 17.288000106811523,0"/></g></g><g opacity="1" transform="matrix(1,0,0,1,-660.7659912109375,-649.9840087890625)"><path fill="rgb(255,255,255)" fill-opacity="1" d=" M-40.33399963378906,13.663000106811523 C-40.33399963378906,13.663000106811523 -37.75199890136719,-14.90999984741211 -37.75199890136719,-14.90999984741211 C-37.75199890136719,-14.90999984741211 38.46699905395508,-14.90999984741211 38.46699905395508,-14.90999984741211 C38.46699905395508,-14.90999984741211 34.92499923706055,35.310001373291016 34.92499923706055,35.310001373291016"/><path stroke-linecap="round" stroke-linejoin="round" fill-opacity="0" stroke="rgb(20,21,24)" stroke-opacity="1" stroke-width="3.248" d=" M-40.33399963378906,13.663000106811523 C-40.33399963378906,13.663000106811523 -37.75199890136719,-14.90999984741211 -37.75199890136719,-14.90999984741211 C-37.75199890136719,-14.90999984741211 38.46699905395508,-14.90999984741211 38.46699905395508,-14.90999984741211 C38.46699905395508,-14.90999984741211 34.92499923706055,35.310001373291016 34.92499923706055,35.310001373291016"/></g><g opacity="1" transform="matrix(1,0,0,1,-677.4609985351562,-631.3989868164062)"><path fill="rgb(246,181,25)" fill-opacity="1" d=" M-21.808000564575195,-18.152000427246094 C-21.808000564575195,-18.152000427246094 39.51300048828125,-18.152000427246094 39.51300048828125,-18.152000427246094 C41.86000061035156,-18.152000427246094 43.91600036621094,-16.575000762939453 44.52299880981445,-14.307999610900879 C44.52299880981445,-14.307999610900879 56.28900146484375,29.604999542236328 56.28900146484375,29.604999542236328 C56.28900146484375,29.604999542236328 -38.617000579833984,29.604999542236328 -38.617000579833984,29.604999542236328 C-40.37699890136719,29.604999542236328 -41.917999267578125,28.42300033569336 -42.374000549316406,26.722000122070312 C-42.374000549316406,26.722000122070312 -56.154998779296875,-24.70800018310547 -56.154998779296875,-24.70800018310547 C-56.81700134277344,-27.179000854492188 -54.95500183105469,-29.604999542236328 -52.39699935913086,-29.604999542236328 C-52.39699935913086,-29.604999542236328 -31.840999603271484,-29.604999542236328 -31.840999603271484,-29.604999542236328 C-29.493999481201172,-29.604999542236328 -27.43899917602539,-28.027999877929688 -26.832000732421875,-25.76099967956543 C-26.832000732421875,-25.76099967956543 -25.565000534057617,-21.03499984741211 -25.565000534057617,-21.03499984741211 C-25.108999252319336,-19.333999633789062 -23.56800079345703,-18.152000427246094 -21.808000564575195,-18.152000427246094z"/><path stroke-linecap="round" stroke-linejoin="round" fill-opacity="0" stroke="rgb(20,21,24)" stroke-opacity="1" stroke-width="3.248" d=" M-21.808000564575195,-18.152000427246094 C-21.808000564575195,-18.152000427246094 39.51300048828125,-18.152000427246094 39.51300048828125,-18.152000427246094 C41.86000061035156,-18.152000427246094 43.91600036621094,-16.575000762939453 44.52299880981445,-14.307999610900879 C44.52299880981445,-14.307999610900879 56.28900146484375,29.604999542236328 56.28900146484375,29.604999542236328 C56.28900146484375,29.604999542236328 -38.617000579833984,29.604999542236328 -38.617000579833984,29.604999542236328 C-40.37699890136719,29.604999542236328 -41.917999267578125,28.42300033569336 -42.374000549316406,26.722000122070312 C-42.374000549316406,26.722000122070312 -56.154998779296875,-24.70800018310547 -56.154998779296875,-24.70800018310547 C-56.81700134277344,-27.179000854492188 -54.95500183105469,-29.604999542236328 -52.39699935913086,-29.604999542236328 C-52.39699935913086,-29.604999542236328 -31.840999603271484,-29.604999542236328 -31.840999603271484,-29.604999542236328 C-29.493999481201172,-29.604999542236328 -27.43899917602539,-28.027999877929688 -26.832000732421875,-25.76099967956543 C-26.832000732421875,-25.76099967956543 -25.565000534057617,-21.03499984741211 -25.565000534057617,-21.03499984741211 C-25.108999252319336,-19.333999633789062 -23.56800079345703,-18.152000427246094 -21.808000564575195,-18.152000427246094z"/></g><g opacity="1" transform="matrix(1,0,0,1,-676.4310302734375,-626.3209838867188)"><path fill="rgb(49,152,212)" fill-opacity="1" d=" M23.600000381469727,10.04800033569336 C23.600000381469727,10.04800033569336 18.21500015258789,-10.04800033569336 18.21500015258789,-10.04800033569336 C18.21500015258789,-10.04800033569336 -23.600000381469727,-10.04800033569336 -23.600000381469727,-10.04800033569336 C-23.600000381469727,-10.04800033569336 -18.21500015258789,10.04800033569336 -18.21500015258789,10.04800033569336 C-18.21500015258789,10.04800033569336 23.600000381469727,10.04800033569336 23.600000381469727,10.04800033569336z"/><path stroke-linecap="round" stroke-linejoin="round" fill-opacity="0" stroke="rgb(20,21,24)" stroke-opacity="1" stroke-width="3.248" d=" M23.600000381469727,10.04800033569336 C23.600000381469727,10.04800033569336 18.21500015258789,-10.04800033569336 18.21500015258789,-10.04800033569336 C18.21500015258789,-10.04800033569336 -23.600000381469727,-10.04800033569336 -23.600000381469727,-10.04800033569336 C-23.600000381469727,-10.04800033569336 -18.21500015258789,10.04800033569336 -18.21500015258789,10.04800033569336 C-18.21500015258789,10.04800033569336 23.600000381469727,10.04800033569336 23.600000381469727,10.04800033569336z"/></g><g opacity="1" transform="matrix(1,0,0,1,-675.5330200195312,-622.9710083007812)"><path stroke-linecap="round" stroke-linejoin="round" fill-opacity="0" stroke="rgb(20,21,24)" stroke-opacity="1" stroke-width="3.248" d=" M6.968999862670898,0 C6.968999862670898,0 -6.968999862670898,0 -6.968999862670898,0"/></g><g opacity="1" transform="matrix(1,0,0,1,-677.3280029296875,-629.6699829101562)"><path stroke-linecap="round" stroke-linejoin="round" fill-opacity="0" stroke="rgb(20,21,24)" stroke-opacity="1" stroke-width="3.248" d=" M-6.968999862670898,0 C-6.968999862670898,0 6.968999862670898,0 6.968999862670898,0"/></g></g><g transform="matrix(3.259999990463257,0,0,3.259999990463257,623.30224609375,2829.379150390625)" opacity="1" style="display: block;"><g opacity="1" transform="matrix(1,0,0,1,-85.9739990234375,-823.166015625)"><path fill="rgb(255,255,255)" fill-opacity="1" d=" M34.45199966430664,0 C34.45199966430664,19.027000427246094 19.027000427246094,34.45199966430664 0,34.45199966430664 C-19.027000427246094,34.45199966430664 -34.45199966430664,19.027000427246094 -34.45199966430664,0 C-34.45199966430664,-19.027000427246094 -19.027000427246094,-34.45199966430664 0,-34.45199966430664 C19.027000427246094,-34.45199966430664 34.45199966430664,-19.027000427246094 34.45199966430664,0z"/><path stroke-linecap="round" stroke-linejoin="round" fill-opacity="0" stroke="rgb(20,21,24)" stroke-opacity="1" stroke-width="3.313" d=" M34.45199966430664,0 C34.45199966430664,19.027000427246094 19.027000427246094,34.45199966430664 0,34.45199966430664 C-19.027000427246094,34.45199966430664 -34.45199966430664,19.027000427246094 -34.45199966430664,0 C-34.45199966430664,-19.027000427246094 -19.027000427246094,-34.45199966430664 0,-34.45199966430664 C19.027000427246094,-34.45199966430664 34.45199966430664,-19.027000427246094 34.45199966430664,0z"/></g><g opacity="1" transform="matrix(-0.9721922278404236,-0.2341843545436859,0.2341843545436859,-0.9721922278404236,23.242462158203125,-1643.8541259765625)"><g opacity="1" transform="matrix(1,0,0,1,-68.98400115966797,-841.0360107421875)"><path stroke-linecap="round" stroke-linejoin="round" fill-opacity="0" stroke="rgb(20,21,24)" stroke-opacity="1" stroke-width="3.313" d=" M-11.541999816894531,-10.972000122070312 C-0.1899999976158142,-8.840999603271484 8.857000350952148,-0.17399999499320984 11.541999816894531,10.972000122070312"/></g><g opacity="1" transform="matrix(1,0,0,1,-103.51499938964844,-840.614013671875)"><path stroke-linecap="round" stroke-linejoin="round" fill-opacity="0" stroke="rgb(20,21,24)" stroke-opacity="1" stroke-width="3.313" d=" M-11.140000343322754,11.199000358581543 C-8.723999977111816,0.05700000002980232 0.019999999552965164,-8.725000381469727 11.140000343322754,-11.199000358581543"/></g><g opacity="1" transform="matrix(1,0,0,1,-103.62899780273438,-805.4210205078125)"><path stroke-linecap="round" stroke-linejoin="round" fill-opacity="0" stroke="rgb(20,21,24)" stroke-opacity="1" stroke-width="3.313" d=" M10.869999885559082,10.8149995803833 C0.1589999943971634,8.279999732971191 -8.281999588012695,-0.125 -10.869999885559082,-10.8149995803833"/></g><g opacity="1" transform="matrix(1,0,0,1,-68.24400329589844,-805.7490234375)"><path stroke-linecap="round" stroke-linejoin="round" fill-opacity="0" stroke="rgb(20,21,24)" stroke-opacity="1" stroke-width="3.313" d=" M10.944999694824219,-11.142000198364258 C8.548999786376953,-0.14100000262260437 -0.01600000075995922,8.555000305175781 -10.944999694824219,11.142000198364258"/></g></g><g opacity="1" transform="matrix(1.0444539785385132,0,0,1.0444539785385132,3.8218841552734375,36.7784423828125)"><g opacity="1" transform="matrix(1,0,0,1,-85.9739990234375,-827.3380126953125)"><path stroke-linecap="round" stroke-linejoin="round" fill-opacity="0" stroke="rgb(20,21,24)" stroke-opacity="1" stroke-width="3.313" d=" M-11.032999992370605,-8.852999687194824 C-9.439000129699707,-14.96500015258789 -3.5309998989105225,-17.56100082397461 1.6990000009536743,-17.222000122070312 C6.821000099182129,-16.889999389648438 11.032999992370605,-12.505000114440918 11.032999992370605,-7.372000217437744 C11.032999992370605,2.572999954223633 -1.996999979019165,5.76200008392334 -1.996999979019165,17.027999877929688 C-1.996999979019165,17.101999282836914 -1.9980000257492065,17.177000045776367 -1.9980000257492065,17.250999450683594"/></g><g opacity="1" transform="matrix(1,0,0,1,-87.7229995727539,-802.2000122070312)"><path stroke-linecap="round" stroke-linejoin="round" fill-opacity="0" stroke="rgb(20,21,24)" stroke-opacity="1" stroke-width="3.313" d=" M0,-0.4569999873638153 C0.2522183060646057,-0.4569999873638153 0.4569999873638153,-0.2522183060646057 0.4569999873638153,0 C0.4569999873638153,0.2522183060646057 0.2522183060646057,0.4569999873638153 0,0.4569999873638153 C-0.2522183060646057,0.4569999873638153 -0.4569999873638153,0.2522183060646057 -0.4569999873638153,0 C-0.4569999873638153,-0.2522183060646057 -0.2522183060646057,-0.4569999873638153 0,-0.4569999873638153z"/></g></g></g></g></svg>